<svg width="100" height="100" viewBox="0 0 100 100" fill="none" xmlns="http://www.w3.org/2000/svg">
<path fill-rule="evenodd" clip-rule="evenodd" d="M50 0C77.572 0 100 22.4279 100 50C100 77.5721 77.572 100 50 100C22.428 100 0 77.5721 0 50C0 22.4279 22.428 0 50 0ZM50 5C25.1894 5 5 25.1893 5 50C5 74.8107 25.1894 95 50 95C74.8105 95 95 74.8107 95 50C95 25.1893 74.8105 5 50 5ZM50 8.27586C52.5454 8.27586 55.0836 8.48339 57.611 8.88961L58.453 9.03236L59.6897 9.2529L59.689 28.271L59.9457 28.3863C64.9391 30.6925 69.0016 34.6781 71.4059 39.6161L71.6137 40.0543L71.728 40.31L90.7471 40.3103L90.9676 41.547C91.4679 44.3524 91.7241 47.1718 91.7241 50C91.7241 52.5454 91.5166 55.0836 91.1104 57.611L90.9676 58.453L90.7471 59.6897L71.728 59.689L71.6137 59.9457C69.3075 64.9391 65.3219 69.0016 60.3839 71.4059L59.9457 71.6137L59.689 71.728L59.6897 90.7471L58.453 90.9676C55.6476 91.4679 52.8282 91.7241 50 91.7241C47.4546 91.7241 44.9164 91.5166 42.389 91.1104L41.547 90.9676L40.3103 90.7471L40.31 71.728L40.0543 71.6137C35.0609 69.3075 30.9984 65.3219 28.5941 60.3839L28.3863 59.9457L28.271 59.689L9.2529 59.6897L9.03236 58.453C8.53206 55.6476 8.27586 52.8282 8.27586 50C8.27586 47.4546 8.48339 44.9164 8.88961 42.389L9.03236 41.547L9.2529 40.3103L28.271 40.31L28.3863 40.0543C30.6925 35.0609 34.6781 30.9984 39.6161 28.5941L40.0543 28.3863L40.31 28.271L40.3103 9.2529L41.547 9.03236C44.3524 8.53206 47.1718 8.27586 50 8.27586ZM50 31.2069C39.64 31.2069 31.2069 39.64 31.2069 50C31.2069 60.36 39.64 68.7931 50 68.7931C60.36 68.7931 68.7931 60.36 68.7931 50C68.7931 39.64 60.36 31.2069 50 31.2069Z" fill="#202543"/>
</svg>
