<svg width="100" height="100" viewBox="0 0 100 100" fill="none" xmlns="http://www.w3.org/2000/svg">
<path fill-rule="evenodd" clip-rule="evenodd" d="M100 50C100 22.4279 77.572 0 50 0C22.428 0 0 22.4279 0 50C0 77.5721 22.428 100 50 100C77.572 100 100 77.5721 100 50ZM5 50C5 25.1893 25.1894 5 50 5C74.8105 5 95 25.1893 95 50C95 74.8107 74.8105 95 50 95C25.1894 95 5 74.8107 5 50ZM19 72V29H81V72H19ZM28 33L50.5 48L73 33H28ZM23 65L41 46.4L23 34V65ZM50.5 52.7216L44.9583 49L26 68H75L56.0417 49L50.5 52.7216ZM77 34L59 46.4395L77 65V34Z" fill="#151724"/>
</svg>
