<svg width="100" height="100" viewBox="0 0 100 100" fill="none" xmlns="http://www.w3.org/2000/svg">
<path fill-rule="evenodd" clip-rule="evenodd" d="M8.51064 21.7757C17.9102 8.14631 33.4196 0 49.8688 0C77.441 0 100 22.559 100 50.1312C100 66.5804 91.8537 82.0898 78.3809 91.4894L74.7778 86.3196C86.6839 78.0166 93.7336 64.5439 93.7336 50.1312C93.7336 26.0055 73.9945 6.26639 49.8688 6.26639C35.4561 6.26639 21.9834 13.3161 13.6804 25.3789L8.51064 21.7757ZM57.1746 71.1748C55.6017 69.5997 53.3995 68.6546 51.3547 68.6546C49.4671 68.6546 47.5796 69.4422 46.3212 70.7023L40.9731 76.2153C37.8272 74.0101 34.8386 71.3323 31.85 68.4971C29.0187 65.6618 26.3446 62.5115 24.1425 59.3612L29.6479 53.8482C31.0635 52.4306 31.85 50.3829 31.6927 48.3352C31.5354 46.2875 30.7489 44.5548 29.176 42.9797L19.5809 33.3713C18.008 31.7962 15.8058 30.8511 13.761 30.8511C11.8734 30.8511 9.98588 31.6386 8.72751 32.8988L3.37946 38.2543C2.90757 38.7268 2.59298 39.1993 2.27839 39.6719C-3.85615 49.1228 2.75027 67.0794 17.8507 82.2008C28.8614 93.2269 41.9169 100 51.8266 100C55.1298 100 58.1184 99.2124 60.3205 97.7948C60.9497 97.4798 61.4216 97.1647 61.7362 96.6922L67.0842 91.3367C68.4999 89.9191 69.2864 87.8714 69.1291 85.8237C68.9718 83.776 68.1853 82.0433 66.6124 80.4682L57.1746 71.1748ZM62.8373 87.0838L57.4892 92.4393L57.1746 92.5968C55.9162 93.5419 54.0287 93.8569 51.9838 93.8569C43.8045 93.8569 32.1646 87.5563 22.5695 77.7904C8.41292 63.9291 3.85134 48.9652 7.62644 43.1372L13.1318 37.4667C13.4464 37.3092 13.6037 37.3092 13.761 37.3092C14.2329 37.3092 14.7048 37.4667 15.1766 37.9392L24.7717 47.5476C25.0863 47.8626 25.4009 48.3352 25.4009 48.8077C25.4009 48.9653 25.4009 49.2803 25.2436 49.4378L18.9517 55.7384C17.2215 57.471 17.0642 60.1488 18.4799 62.1965C20.9966 65.9768 24.1425 69.4422 27.4457 72.9075C30.7489 76.2153 34.3667 79.2081 38.1418 81.8858C40.1867 83.3034 43.018 83.1459 44.591 81.4133L50.8828 75.1127C51.0401 74.9552 51.1974 74.9552 51.512 74.9552C51.9838 74.9552 52.4557 75.1127 52.9276 75.5852L62.5227 85.1936C62.8373 85.5087 63.1518 85.9812 63.1518 86.4537C63.0732 86.5325 63.0339 86.6506 62.9945 86.7688C62.9552 86.8869 62.9159 87.005 62.8373 87.0838ZM48.4822 42.0436L48.4821 42.0437C48.1422 42.4156 47.7785 42.8136 47.3404 43.1383C46.856 43.617 46.3716 43.9362 45.8872 44.2553C44.9184 45.0531 44.1111 45.6914 43.3038 46.3296L43.3036 46.3298L43.3035 46.3298C42.4962 46.9681 41.6888 47.6064 41.0429 48.2447C40.4872 48.684 40.0845 49.1233 39.7295 49.5106L39.7294 49.5108C39.5686 49.6861 39.4177 49.8508 39.2667 50C38.7823 50.6383 38.4593 51.2766 38.2979 51.7553V56.383H56.2215V51.7553H44.9183C45.0635 51.6119 45.2413 51.4684 45.437 51.3105C45.6767 51.117 45.9434 50.9018 46.2101 50.6383C46.5934 50.2595 46.8756 50.0805 47.2167 49.8642L47.2168 49.8642L47.2171 49.864C47.307 49.807 47.4009 49.7474 47.5019 49.6809C48.1478 49.2021 48.7937 48.6835 49.4396 48.1649C50.0855 47.6463 50.7314 47.1277 51.3773 46.6489C52.6691 45.5319 53.7994 44.4149 54.7682 43.1383C55.8986 41.7021 56.383 40.1064 56.383 38.3511C56.383 37.0745 56.2215 36.117 55.7371 35.1596C55.2527 34.2021 54.6068 33.4043 53.7994 32.766C52.992 32.1277 52.0232 31.6489 51.0543 31.3298C49.924 31.0106 48.7937 30.8511 47.6634 30.8511C45.4027 30.8511 43.3036 31.4894 41.6888 32.766C40.8815 33.4042 40.2356 34.2021 39.5897 35L39.5897 35L39.5897 35C39.1052 35.7979 38.6208 36.9149 38.4593 38.1915L43.3036 39.3085C43.465 38.1915 43.9495 37.234 44.7568 36.4362C45.4027 35.6383 46.3716 35.3191 47.6634 35.3191C48.6322 35.3191 49.4396 35.6383 50.0855 36.117C50.7314 36.5957 51.0543 37.3936 51.0543 38.3511C51.0543 38.8298 50.8929 39.4681 50.5699 39.9468C50.1319 40.2715 49.7681 40.6695 49.4282 41.0414C49.267 41.2179 49.1111 41.3885 48.9552 41.5426C48.7993 41.6966 48.6434 41.8671 48.4822 42.0436ZM76.5957 46.4271H73.2255V30.8511H67.8638L57.4468 45.7848V50.7627H68.3234V56.383H73.2255V50.7627H76.5957V46.4271ZM68.3234 46.4271H61.8894L68.3234 36.953V46.4271Z" fill="#151724"/>
</svg>
